<svg class="img-fluid" id="outputsvg" xmlns="http://www.w3.org/2000/svg" style="transform: matrix(0.769231, 0, 0, 0.769231, 0, 0); transform-origin: 50% 50%; cursor: move; transition: transform 200ms ease-in-out 0s;" width="844" height="844" viewBox="0 0 8440 8440"><g id="l4a5heO83F0iT8rLe3PMmqd" fill="rgb(161,41,53)" style="transform: none;"><g style="transform: none;"><path id="ptdntRtJB" d="M0 4220 l0 -4220 4220 0 4220 0 0 4220 0 4220 -4220 0 -4220 0 0 -4220z m5420 617 c19 -7 49 -20 66 -29 32 -17 104 -91 104 -107 0 -5 3 -16 6 -25 5 -14 -6 -16 -80 -16 -83 0 -86 1 -100 28 -30 58 -50 67 -150 67 -170 0 -176 -11 -176 -306 0 -120 -4 -219 -8 -219 -23 0 -105 67 -132 108 -138 208 -27 467 219 512 60 11 206 4 251 -13z m1367 6 c8 -3 13 -22 13 -49 l0 -44 -54 0 c-47 0 -57 -4 -75 -27 -20 -25 -21 -36 -19 -212 l3 -186 73 -3 72 -3 0 -54 0 -55 -75 0 -75 0 0 -105 0 -105 -65 0 c-44 0 -67 4 -69 13 -2 6 -15 53 -28 102 l-25 90 -56 3 -57 3 0 54 0 55 50 0 50 0 0 189 c0 196 9 251 47 293 22 25 69 46 113 51 38 5 155 -2 177 -10z m-4979 -815 l-3 -823 -96 -3 -96 -3 -6 587 c-9 744 -9 1049 0 1057 3 4 51 7 105 7 l98 0 -2 -822z m642 -3 l0 -825 -100 0 -100 0 0 220 0 220 -39 0 c-37 0 -43 -5 -107 -80 -37 -44 -69 -80 -71 -80 -1 0 -3 69 -3 153 l0 152 61 70 c34 39 83 96 110 128 l49 58 0 200 0 199 -39 0 c-37 0 -43 -5 -108 -82 l-68 -83 -3 154 -3 153 48 57 c27 32 77 92 113 134 l65 76 98 1 97 0 0 -825z m500 0 l0 -825 -115 0 -114 0 -3 413 c-2 226 -2 598 0 825 l3 412 114 0 115 0 0 -825z m647 813 c-3 -7 -68 -114 -146 -238 -108 -172 -141 -232 -141 -258 0 -26 13 -48 62 -105 146 -171 163 -187 196 -187 27 0 32 -4 32 -25 0 -13 -8 -29 -19 -34 -19 -10 -35 -35 -185 -274 -118 -190 -120 -173 44 -361 72 -81 130 -150 130 -152 0 -2 -53 -4 -119 -4 l-118 0 -81 98 -82 97 0 161 0 160 30 47 c17 26 30 50 30 53 0 2 18 34 40 70 60 99 57 121 -30 225 l-70 84 0 159 0 158 96 169 96 169 120 0 c92 0 119 -3 115 -12z m453 -413 l0 -425 -110 0 -110 0 0 425 0 425 110 0 110 0 0 -425z m660 420 c0 -3 -15 -29 -34 -58 -173 -267 -256 -412 -256 -446 0 -32 16 -54 130 -185 72 -82 130 -150 130 -152 0 -2 -53 -4 -119 -4 l-118 0 -81 98 -82 97 0 158 0 157 97 170 97 170 118 0 c65 0 118 -2 118 -5z m1300 -160 c0 -120 -6 -200 -20 -288 -12 -67 -23 -137 -26 -154 l-5 -33 -74 0 -75 0 0 320 0 320 100 0 100 0 0 -165z m-400 -179 c0 -68 -47 -173 -98 -217 -45 -40 -125 -76 -187 -84 -27 -3 -60 -9 -72 -12 -22 -5 -23 -2 -23 46 0 48 1 51 26 51 48 0 105 23 130 53 21 25 24 38 22 86 l-3 56 -85 0 -85 0 -3 28 -3 27 190 0 191 0 0 -34z m609 -142 l31 -6 0 -73 c0 -65 -2 -73 -22 -82 -13 -5 -34 -7 -48 -3 -24 6 -25 10 -28 88 -3 91 -4 90 67 76z"></path></g></g><g id="l2FiNUWVkddodsbXaf4MKw4" fill="rgb(182,204,93)" style="transform: none;"><g style="transform: none;"><path id="pHuMXaWMi" d="M5139 4881 c-102 -19 -189 -77 -233 -155 -37 -65 -49 -126 -44 -223 7 -147 70 -248 185 -299 29 -13 58 -24 63 -24 6 0 10 88 10 229 0 200 2 233 17 260 25 42 56 56 129 56 68 0 93 -14 120 -67 l15 -28 119 0 c120 0 120 0 120 24 0 83 -78 171 -190 214 -43 16 -247 24 -311 13z"></path><path id="pMMPikdQn" d="M6580 4884 c-44 -6 -91 -27 -113 -52 -38 -42 -47 -97 -47 -293 l0 -189 -50 0 -50 0 0 -85 0 -84 57 -3 c64 -3 54 11 92 -133 l18 -70 89 -5 c49 -3 92 -4 97 -2 4 2 7 50 7 108 l0 104 75 0 75 0 0 85 0 84 -72 3 -73 3 -3 156 c-2 145 -1 157 18 182 19 23 29 27 76 27 l54 0 0 74 c0 60 -3 75 -17 80 -22 9 -188 15 -233 10z"></path><path id="pW96MS4rF" d="M3802 4424 l3 -455 135 0 135 0 3 455 2 456 -140 0 -140 0 2 -456z"></path><path id="pdaLGsBUE" d="M4345 4706 l-100 -174 5 -186 5 -185 79 -95 78 -96 179 0 179 0 -160 183 c-88 100 -160 185 -160 188 0 3 50 87 111 185 62 98 131 211 155 249 24 39 48 75 54 82 5 7 10 15 10 18 0 3 -76 5 -168 5 l-168 0 -99 -174z"></path><path id="pZP9YuQEe" d="M5780 4530 l0 -350 105 0 104 0 5 33 c3 17 14 87 26 154 15 94 20 168 20 318 l0 195 -130 0 -130 0 0 -350z"></path><path id="pv1UF9FQH" d="M5202 4513 l3 -58 85 -1 c83 -2 85 -2 88 -26 7 -55 -83 -115 -150 -101 l-28 5 0 -86 0 -86 31 0 c62 0 176 23 225 45 120 55 184 159 184 301 l0 64 -220 0 -221 0 3 -57z"></path><path id="p12XsxR5Mk" d="M6122 4288 l3 -113 47 -9 c33 -7 55 -5 78 4 l31 13 -3 106 -3 106 -78 3 -78 4 3 -114z"></path><path id="pOtKfqewg" d="M3540 4075 c0 -18 10 -40 27 -57 l27 -28 -132 0 c-76 0 -133 4 -137 10 -10 16 -55 13 -49 -3 3 -8 -13 -44 -36 -80 -22 -37 -40 -69 -40 -71 0 -3 -13 -27 -30 -53 l-30 -47 0 -190 0 -191 83 -98 82 -98 173 -2 c94 -1 172 0 172 2 0 9 -52 71 -175 211 -69 80 -129 150 -131 156 -4 9 64 125 209 352 22 34 52 70 68 79 21 13 26 20 17 30 -7 9 -6 20 6 38 25 38 20 45 -32 45 -26 0 -53 5 -60 12 -9 9 -12 6 -12 -17z"></path><path id="p03n2hn12" d="M2207 4058 c-8 -13 -58 -72 -111 -133 l-96 -110 0 -217 c0 -120 1 -218 3 -218 2 0 48 52 101 115 54 63 102 115 107 115 5 0 10 -99 11 -221 l3 -220 125 -1 125 0 3 411 2 411 -104 0 c-57 0 -111 3 -120 6 -11 4 -16 19 -16 45 0 44 -11 49 -33 17z"></path><path id="pgboI2lbO" d="M1574 3955 c2 -22 5 -208 5 -413 l1 -373 128 3 127 3 3 410 2 410 -135 0 -136 0 5 -40z"></path><path id="ptWfYnL9j" d="M2684 3968 c3 -13 6 -197 6 -410 l0 -387 135 -3 c75 -2 140 -2 145 0 6 2 10 154 10 413 l0 409 -151 0 -151 0 6 -22z"></path></g></g><g id="l7c8pJiqNvnW8mp0SRTI1zt" fill="rgb(255,255,255)" style="transform: none;"><g style="transform: none;"><path id="pIsP3uwY8" d="M1575 4868 c-3 -7 -4 -213 -3 -458 l3 -445 130 0 130 0 3 458 2 457 -130 0 c-95 0 -132 -3 -135 -12z"></path><path id="pZUUws6NO" d="M2173 4817 c-29 -34 -80 -93 -113 -132 l-60 -70 1 -220 0 -220 36 40 c19 22 65 75 100 118 36 42 70 77 75 77 8 0 9 -69 6 -219 -5 -187 -3 -221 9 -225 8 -3 68 -6 134 -6 l119 0 0 460 0 460 -127 0 -128 0 -52 -63z"></path><path id="pFFxeJDa4" d="M2690 4873 c0 -5 -1 -212 -2 -461 l-3 -452 148 0 147 0 0 460 0 460 -145 0 c-80 0 -145 -3 -145 -7z"></path><path id="puJYo2eDh" d="M3236 4711 l-96 -169 0 -188 0 -189 63 -75 c34 -41 70 -88 80 -103 l18 -28 179 1 c212 2 205 -12 68 142 -178 199 -210 237 -202 250 20 35 289 467 305 490 10 15 19 30 19 33 0 3 -76 5 -169 5 l-169 0 -96 -169z"></path></g></g></svg>